<svg width="25" height="25" viewBox="0 0 25 25" fill="none" xmlns="http://www.w3.org/2000/svg">
<path d="M0.5 11.5C6.57513 11.5 11.5 6.57513 11.5 0.5C11.5 -5.57513 6.57513 -10.5 0.5 -10.5C-5.57513 -10.5 -10.5 -5.57513 -10.5 0.5C-10.5 6.57513 -5.57513 11.5 0.5 11.5Z" stroke="white" stroke-opacity="0.3" stroke-width="2"/>
<path d="M11.5 0.5C11.5 -5.57513 6.57513 -10.5 0.5 -10.5C-5.57513 -10.5 -10.5 -5.57513 -10.5 0.5C-10.5 6.57513 -5.57513 11.5 0.5 11.5C6.57513 11.5 11.5 6.57513 11.5 0.5Z" stroke="#5684FD" stroke-width="2" stroke-linecap="round" stroke-dasharray="69.11 69.11"/>
<path d="M8.14773 9.48181V15.3H7.44318V10.2204H7.40909L5.98864 11.1636V10.4477L7.44318 9.48181H8.14773ZM11.7188 15.3795C11.2907 15.3795 10.9261 15.2631 10.625 15.0301C10.3239 14.7953 10.0938 14.4553 9.93466 14.0102C9.77557 13.5632 9.69602 13.0235 9.69602 12.3909C9.69602 11.7621 9.77557 11.2252 9.93466 10.7801C10.0956 10.3331 10.3267 9.99222 10.6278 9.75737C10.9309 9.52063 11.2945 9.40226 11.7188 9.40226C12.143 9.40226 12.5057 9.52063 12.8068 9.75737C13.1098 9.99222 13.3409 10.3331 13.5 10.7801C13.661 11.2252 13.7415 11.7621 13.7415 12.3909C13.7415 13.0235 13.6619 13.5632 13.5028 14.0102C13.3438 14.4553 13.1136 14.7953 12.8125 15.0301C12.5114 15.2631 12.1468 15.3795 11.7188 15.3795ZM11.7188 14.7545C12.143 14.7545 12.4725 14.55 12.7074 14.1409C12.9422 13.7318 13.0597 13.1485 13.0597 12.3909C13.0597 11.8871 13.0057 11.4581 12.8977 11.104C12.7917 10.7498 12.6383 10.4799 12.4375 10.2943C12.2386 10.1087 11.9991 10.0159 11.7188 10.0159C11.2983 10.0159 10.9697 10.2233 10.733 10.6381C10.4962 11.0509 10.3778 11.6352 10.3778 12.3909C10.3778 12.8947 10.4309 13.3227 10.5369 13.675C10.643 14.0273 10.7955 14.2953 10.9943 14.479C11.1951 14.6627 11.4366 14.7545 11.7188 14.7545ZM16.7188 15.3795C16.2907 15.3795 15.9261 15.2631 15.625 15.0301C15.3239 14.7953 15.0938 14.4553 14.9347 14.0102C14.7756 13.5632 14.696 13.0235 14.696 12.3909C14.696 11.7621 14.7756 11.2252 14.9347 10.7801C15.0956 10.3331 15.3267 9.99222 15.6278 9.75737C15.9309 9.52063 16.2945 9.40226 16.7188 9.40226C17.143 9.40226 17.5057 9.52063 17.8068 9.75737C18.1098 9.99222 18.3409 10.3331 18.5 10.7801C18.661 11.2252 18.7415 11.7621 18.7415 12.3909C18.7415 13.0235 18.6619 13.5632 18.5028 14.0102C18.3438 14.4553 18.1136 14.7953 17.8125 15.0301C17.5114 15.2631 17.1468 15.3795 16.7188 15.3795ZM16.7188 14.7545C17.143 14.7545 17.4725 14.55 17.7074 14.1409C17.9422 13.7318 18.0597 13.1485 18.0597 12.3909C18.0597 11.8871 18.0057 11.4581 17.8977 11.104C17.7917 10.7498 17.6383 10.4799 17.4375 10.2943C17.2386 10.1087 16.9991 10.0159 16.7188 10.0159C16.2983 10.0159 15.9697 10.2233 15.733 10.6381C15.4962 11.0509 15.3778 11.6352 15.3778 12.3909C15.3778 12.8947 15.4309 13.3227 15.5369 13.675C15.643 14.0273 15.7955 14.2953 15.9943 14.479C16.1951 14.6627 16.4366 14.7545 16.7188 14.7545Z" fill="white"/>
</svg>
